<svg id="Capa_1" enable-background="new 0 0 497 497" height="512" viewBox="0 0 497 497" width="512" xmlns="http://www.w3.org/2000/svg"><g><path d="m105 28.5 13.5-11.5h299c11.046 0 20 8.954 20 20v427c0 11.046-10.454 16.5-21.5 16.5l-312-3z" fill="#aad8de"/><path d="m437.5 464c0 11.05-8.95 20-20 20h-319l-25.5-235.5 25.5-231.5h20v438c0 4.971 4.029 9 9 9z" fill="#94ccd4"/><path d="m98 480.5-24.5-1.5c-11.046 0-20-8.954-20-20l-3.5-419.5c0-11.046 6.454-22.5 17.5-22.5h31v447l-4.5 7.5z" fill="#ffbf54"/><path d="m98.5 464v20h-31c-11.046 0-20-8.954-20-20v-427c0-11.05 8.95-20 20-20v440c0 3.866 3.134 7 7 7z" fill="#ffa442"/><g><path d="m390.75 349.7-237.5-2.49c-9.649 0-17.5-7.851-17.5-17.5v-202.42c0-9.649 7.851-17.5 17.5-17.5l10.22-6.24h81.21l26.07 7.5 28.93-7.5h81.76l11.879 5.695c9.649 0 17.5 7.851 17.5 17.5l3.681 7.535v66.72l-9.777 27.5 9.777 27.5v66.01l-6.25 10.19c0 9.649-7.851 17.5-17.5 17.5z" fill="#5d748a"/><path d="m414.5 328.45-3.819 3.75c0 9.665-7.835 17.5-17.5 17.5l-11.811 3.75h-80.987l-31.149-6.376-24.554 6.376h-81.73l-11.365-3.75c-9.665 0-17.5-7.835-17.5-17.5l-4.585-9.36v-66.84l6.202-23.564-6.202-31.436v-66.14l3.75-10.158c0-9.665 7.835-17.5 17.5-17.5l-.878 7.404 4.628 41.804v154.04c0 9.941 8.059 18 18 18z" fill="#3f597d"/><path d="m399.5 121.04v6.49l-84.34 73.47h-15.48v-6.4l87.31-76.06h10.01c1.38 0 2.5 1.13 2.5 2.5z" fill="#f0e9e6"/><path d="m405.951 127.496c0-9.071-7.379-16.45-16.45-16.45h-14.627l-76.855 66.891v-66.891h-51.701v66.985l-76.338-66.985h-15.482c-9.071 0-16.45 7.379-16.45 16.45v12.982l72.118 62.172h-72.118v51.701h72.118l-72.118 62.83v12.324c0 9.071 7.379 16.45 16.45 16.45h14.993l76.827-66.976v66.976h51.701v-66.882l76.79 66.882h14.692c9.071 0 16.45-7.379 16.45-16.45v-13.105l-71.911-62.05h71.911v-51.7h-71.911l71.911-62.717z" fill="#dc4955"/><path d="m405.95 328.45v1.05c0 9.08-7.38 16.45-16.45 16.45h-14.69l-20.09-17.5z" fill="#d82f3c"/><path d="m246.32 328.45h51.7v17.5h-51.7z" fill="#d82f3c"/><path d="m189.57 328.45-20.08 17.5h-14.99c-9.07 0-16.45-7.37-16.45-16.45v-12.32l16.45-14.33v7.6c0 9.94 8.06 18 18 18z" fill="#d82f3c"/><path d="m138.05 202.65h16.45v51.7h-16.45z" fill="#d82f3c"/><path d="m154.5 111.05v43.61l-16.45-14.18v-12.98c0-9.08 7.38-16.45 16.45-16.45z" fill="#d82f3c"/><path d="m414.5 121.05c0-9.65-7.85-17.5-17.5-17.5h-15.56l-81.76 71.16v-71.16h-55v71.26l-81.21-71.26h-8.97l-7.181 4.673c-9.65 0-13.021 3.754-13.021 13.404l-4.798 13.233 76.72 66.14h-76.72l12.5 28.883-12.5 26.117h76.72l-51.72 45.06-19.564 24.398-1.686 7.319c0 9.65 7.85 17.5 17.5 17.5l11.59-1.84 29.288-19.988 53.052-46.249v71.25l28.778-5.511 26.222 5.511v-71.15l53.839 46.893 30.779 18.563 9.734 2.691c9.65 0 17.5-7.85 17.5-17.5l2.968-4.497v-6.44l-76.5-66.01h76.5v-55h-76.5l76.5-66.72zm-268.623 7.656c-.874-.76-1.377-1.861-1.377-3.02v-4.646c0-1.37 1.12-2.5 2.5-2.5h8.575c.964 0 1.896.348 2.624.981l86.481 75.159v6.32h-15.59zm98.803 133.624-87.61 76.13h-10.07c-1.38 0-2.5-1.13-2.5-2.5v-6.46l84.59-73.5h15.59zm154.82 67.15v6.48c0 1.37-1.12 2.5-2.5 2.5h-10.02l-87.3-76.05v-6.41h15.48zm0-110.48v19c0 1.657-1.343 3-3 3h-104.32c-4.142 0-7.5 3.358-7.5 7.5v89.96h-25v-89.96c0-4.142-3.358-7.5-7.5-7.5h-107.68v-25h107.68c4.142 0 7.5-3.358 7.5-7.5v-86.96c0-1.657 1.343-3 3-3h19c1.657 0 3 1.343 3 3v86.96c0 4.15 3.36 7.5 7.5 7.5h104.32c1.657 0 3 1.343 3 3zm-1.373-90.274-82.967 72.274h-15.48v-6.4l86.181-75.076c.728-.634 1.662-.984 2.627-.984h8.512c1.38 0 2.5 1.13 2.5 2.5v4.67c0 1.156-.501 2.256-1.373 3.016z" fill="#faf8f8"/><g fill="#f0e9e6"><path d="m414.5 328.45v7.5c0 9.665-7.835 17.5-17.5 17.5h-15.63l-28.7-25h22.82l10.517 9.162c.627.547 1.432.848 2.264.848h8.729c1.38 0 2.5-1.13 2.5-2.5v-4.914c0-.995-.43-1.942-1.18-2.596z"/><path d="m299.68 328.45v25h-55v-25h15v7.01c0 1.657 1.343 3 3 3h19c1.657 0 3-1.343 3-3v-7.01z"/><path d="m191.63 328.45-28.68 25h-15.95c-9.665 0-17.5-7.835-17.5-17.5v-13.11l25-21.78v9.39c0 3.08.77 5.98 2.13 8.51l-10.754 9.344c-.874.76-1.376 1.861-1.376 3.019v4.637c0 1.37 1.12 2.5 2.5 2.5h8.575c.964 0 1.896-.348 2.624-.981l10.791-9.379c1.14.23 2.31.35 3.51.35z"/><path d="m144.5 219v19c0 1.657 1.343 3 3 3h7v15h-25v-55h25v15h-7c-1.657 0-3 1.343-3 3z"/><path d="m144.5 121.04v6.47l10 8.69v20.21l-25-21.55v-13.81c0-9.65 7.85-17.5 17.5-17.5h7.5v14.99h-7.5c-1.38 0-2.5 1.13-2.5 2.5z"/></g></g><path d="m449.5 21.32v52.68c0 5.523-4.477 10-10 10h-12l-3-3.911c-5.523 0-10-4.477-10-10v-31.089c0-2.761-2.239-5-5-5l-28.947 1c-5.523 0-10-4.477-10-10l-5.053-3v-12c0-5.523 4.477-10 10-10h52.73c11.75 0 21.27 9.54 21.27 21.32z" fill="#ffbf54"/><path d="m427.5 45v39h-8c-5.52 0-10-4.48-10-10v-29c0-2.76-2.24-5-5-5h-29c-5.52 0-10-4.48-10-10v-8h39c12.68 0 23 10.32 23 23z" fill="#ffa442"/><path d="m439.5 413c5.523 0 10 4.477 10 10v52.68c0 11.78-9.52 21.32-21.27 21.32h-52.73c-5.523 0-10-4.477-10-10v-12l4.798-3.287c0-5.523 4.477-10 10-10l31.702-.213c2.761 0 5-2.239 5-5l-4.787-31.553c0-5.523 2.137-6.894 7.66-6.894l7.627-5.053z" fill="#ffbf54"/><path d="m427.5 413v39c0 12.68-10.32 23-23 23h-39v-8c0-5.52 4.48-10 10-10h29c2.76 0 5-2.24 5-5v-29c0-5.52 4.48-10 10-10z" fill="#ffa442"/><path d="m194.59 403.755 149.708.766c5.523 0 16.34 1.438 16.34-4.085l4.362-4.436v-6c0-5.523-4.477-10-10-10h-162l-3.936 2.564c-5.523 0-7.149 4.179-7.149 9.702l1.532 7.734c0 5.523 5.62 3.755 11.143 3.755z" fill="#faf8f8"/><path d="m365 396v4c0 5.523-4.477 10-10 10h-166c-5.523 0-10-4.477-10-10v-10c0-5.523 4.477-10 10-10h4v12c0 2.209 1.791 4 4 4z" fill="#f0e9e6"/></g></svg>